<?xml version="1.0" standalone="no"?>
<!DOCTYPE svg PUBLIC "-//W3C//DTD SVG 20010904//EN"
 "http://www.w3.org/TR/2001/REC-SVG-20010904/DTD/svg10.dtd">
<svg version="1.0" xmlns="http://www.w3.org/2000/svg"
 width="500.000000pt" height="500.000000pt" viewBox="0 0 500.000000 500.000000"
 preserveAspectRatio="xMidYMid meet">
<metadata>
Created by potrace 1.14, written by Peter Selinger 2001-2017
</metadata>
<g transform="translate(0.000000,500.000000) scale(0.100000,-0.100000)"
fill="#000000" stroke="none">
<path d="M1380 4984 c-47 -8 -97 -16 -112 -18 -15 -3 -54 -12 -85 -21 -32 -10
-65 -18 -73 -20 -8 -2 -55 -20 -105 -40 -394 -160 -702 -460 -873 -850 -44
-102 -104 -312 -119 -420 -10 -76 -11 -2162 0 -2231 55 -365 217 -682 476
-933 204 -198 466 -343 736 -406 98 -23 108 -24 172 -33 74 -9 2118 -9 2198 0
50 6 122 20 225 43 8 2 26 8 40 13 14 5 27 10 30 10 24 3 166 60 235 96 86 44
239 144 305 201 248 212 435 506 516 814 55 210 55 216 51 1350 -2 575 -6
1057 -9 1071 -3 14 -9 45 -12 70 -28 178 -134 445 -237 598 -88 129 -244 300
-339 371 -19 14 -37 28 -40 32 -3 3 -41 29 -85 58 -176 115 -407 206 -595 236
-25 4 -54 10 -65 13 -11 4 -499 7 -1085 8 -874 2 -1080 0 -1150 -12z"/>
</g>
</svg>
